<?xml version="1.0" standalone="no"?>
<!DOCTYPE svg PUBLIC "-//W3C//DTD SVG 20010904//EN"
 "http://www.w3.org/TR/2001/REC-SVG-20010904/DTD/svg10.dtd">
<svg version="1.0" xmlns="http://www.w3.org/2000/svg"
 width="40.000000pt" height="40.000000pt" viewBox="0 0 40.000000 40.000000"
 preserveAspectRatio="xMidYMid meet">
<metadata>
Created by potrace 1.16, written by Peter Selinger 2001-2019
</metadata>
<g transform="translate(0.000000,40.000000) scale(0.100000,-0.100000)"
fill="#000000" stroke="none">
<path d="M153 346 c-24 -12 -48 -27 -54 -33 -18 -18 -2 -47 45 -80 23 -17 45
-39 48 -50 5 -18 0 -20 -55 -19 -54 1 -62 -2 -73 -22 -17 -33 -6 -63 28 -76
15 -6 28 -14 28 -18 0 -4 12 -3 27 3 16 6 52 8 85 4 61 -7 91 2 108 35 14 26
-2 58 -33 66 -12 3 -29 21 -38 39 -15 31 -15 37 -1 56 12 17 13 26 3 41 -6 10
-9 23 -6 28 6 9 -47 51 -62 49 -4 -1 -27 -11 -50 -23z"/>
</g>
</svg>
